<?xml version="1.0" encoding="UTF-8" standalone="no"?>
<!-- Created with Inkscape (http://www.inkscape.org/) -->

<svg
   width="110.74452mm"
   height="116.50065mm"
   viewBox="0 0 110.74452 116.50065"
   version="1.1"
   id="svg5"
   xml:space="preserve"
   inkscape:version="1.2.1 (9c6d41e410, 2022-07-14)"
   sodipodi:docname="carrito.svg"
   xmlns:inkscape="http://www.inkscape.org/namespaces/inkscape"
   xmlns:sodipodi="http://sodipodi.sourceforge.net/DTD/sodipodi-0.dtd"
   xmlns="http://www.w3.org/2000/svg"
   xmlns:svg="http://www.w3.org/2000/svg"><sodipodi:namedview
     id="namedview7"
     pagecolor="#ffffff"
     bordercolor="#000000"
     borderopacity="0.25"
     inkscape:showpageshadow="2"
     inkscape:pageopacity="0.0"
     inkscape:pagecheckerboard="0"
     inkscape:deskcolor="#d1d1d1"
     inkscape:document-units="mm"
     showgrid="false"
     inkscape:zoom="0.69041105"
     inkscape:cx="396.86502"
     inkscape:cy="338.92852"
     inkscape:window-width="1768"
     inkscape:window-height="929"
     inkscape:window-x="-8"
     inkscape:window-y="-8"
     inkscape:window-maximized="1"
     inkscape:current-layer="layer1" /><defs
     id="defs2" /><g
     inkscape:label="Capa 1"
     inkscape:groupmode="layer"
     id="layer1"
     transform="translate(0,2.6825806)"><path
       style="stroke-width:0.21218;fill:#f2fbf9;"
       d="m 22.508727,109.96623 c -2.889544,-0.80193 -5.017571,-3.22468 -5.418164,-6.16857 -0.110244,-0.81017 -8.8119887,-42.42641 -9.3216107,-44.580767 -0.0686,-0.290011 -0.436522,-0.573537 -1.046587,-0.806522 -0.517435,-0.197612 -1.357703,-0.726272 -1.86726,-1.174802 -3.54715,-3.122327 -2.821544,-8.775432 1.413299,-11.010848 l 1.069421,-0.564506 H 55.184516 103.0312 l 1.06942,0.564506 c 4.0133,2.118469 4.92907,7.424007 1.82272,10.559932 -0.54038,0.545525 -1.19689,1.130133 -1.45891,1.299126 -0.4309,0.277918 -0.9107,2.363998 -5.024058,21.843578 -2.50122,11.844977 -4.691287,22.362213 -4.866817,23.371633 -0.481139,2.7669 -1.513008,4.4964 -3.440309,5.76623 -1.907074,1.25651 -0.38414,1.2057 -35.515903,1.18497 -25.008282,-0.0148 -32.365991,-0.0779 -33.108616,-0.28396 z m 9.311142,-13.834796 c 1.087387,-0.76164 1.0857,-0.73761 1.0857,-15.461445 0,-14.872994 0.01021,-14.73736 -1.165997,-15.508034 -0.660868,-0.433015 -2.220267,-0.489288 -2.936514,-0.105965 -0.271483,0.145293 -0.652996,0.533995 -0.847803,0.863779 -0.321345,0.543992 -0.354197,1.921975 -0.354197,14.85722 v 14.257615 l 0.721413,0.72142 c 0.64156,0.64155 0.847714,0.72141 1.862412,0.72141 0.711458,0 1.326966,-0.13026 1.634986,-0.346 z m 17.071602,-0.0897 c 0.304678,-0.23966 0.656951,-0.78868 0.782829,-1.22004 0.156439,-0.53609 0.208417,-5.1939 0.164243,-14.718176 l -0.06463,-13.933924 -0.514695,-0.547755 c -1.441577,-1.53417 -4.232752,-0.915817 -4.5815,1.01498 -0.06614,0.366192 -0.09233,6.951562 -0.0582,14.634152 l 0.06206,13.968353 0.692935,0.61905 c 0.582558,0.52045 0.873729,0.61906 1.827964,0.61906 0.823631,0 1.28701,-0.11954 1.688988,-0.43574 z m 17.163945,-0.18332 0.692935,-0.61906 0.05231,-14.286616 c 0.04056,-11.078113 -0.0071,-14.40115 -0.21218,-14.796612 -0.475579,-0.917029 -1.326111,-1.37617 -2.516017,-1.35822 -0.923611,0.01394 -1.186789,0.116273 -1.751677,0.681161 l -0.664765,0.664766 v 14.547685 14.547686 l 0.692934,0.61914 c 0.586575,0.5241 0.871029,0.61913 1.853231,0.61913 0.982154,0 1.266686,-0.0951 1.853231,-0.61906 z m 16.974436,-7e-5 0.692935,-0.61914 V 80.704487 66.169817 l -0.516632,-0.549929 c -1.056122,-1.12419 -3.003875,-1.123201 -4.061005,0.0021 l -0.514694,0.547869 v 14.534692 14.534675 l 0.692934,0.61913 c 0.586575,0.52405 0.871029,0.61908 1.853231,0.61908 0.982203,0 1.266656,-0.095 1.853231,-0.61914 z M 20.687197,37.826214 c -1.543341,-0.671972 -2.17046,-2.344467 -1.79467,-4.786306 1.85526,-12.055275 9.523469,-22.429302 20.468541,-27.6911005 6.645012,-3.194564 14.171358,-4.35075495 21.34014,-3.278255 15.402979,2.304393 27.666688,13.9462515 30.75416,29.1947215 0.702983,3.471913 0.553082,4.493544 -0.830105,5.657418 -1.366442,1.149787 -3.78461,0.841588 -4.672812,-0.595555 -0.236908,-0.383323 -0.657023,-1.829776 -0.933592,-3.214342 -1.300581,-6.51101 -3.983792,-11.584736 -8.438196,-15.955925 -2.570678,-2.522655 -4.799884,-4.114168 -7.922688,-5.656304 -4.446607,-2.1958705 -8.37245,-3.1063115 -13.39449,-3.1063115 -14.970516,0 -27.70129,11.0411705 -29.794461,25.8402005 -0.134537,0.951183 -0.425101,2.026219 -0.645703,2.388969 -0.823222,1.35368 -2.601721,1.870869 -4.136124,1.20279 z"
       id="path1057" /></g></svg>
