<?xml version="1.0" encoding="UTF-8" standalone="no"?>
<!-- Created with Inkscape (http://www.inkscape.org/) -->

<svg
   width="209.45804mm"
   height="191.85915mm"
   viewBox="0 0 209.45804 191.85915"
   version="1.1"
   id="svg5"
   xml:space="preserve"
   inkscape:version="1.2.1 (9c6d41e410, 2022-07-14)"
   sodipodi:docname="petshop.svg"
   xmlns:inkscape="http://www.inkscape.org/namespaces/inkscape"
   xmlns:sodipodi="http://sodipodi.sourceforge.net/DTD/sodipodi-0.dtd"
   xmlns="http://www.w3.org/2000/svg"
   xmlns:svg="http://www.w3.org/2000/svg"><sodipodi:namedview
     id="namedview7"
     pagecolor="#ffffff"
     bordercolor="#000000"
     borderopacity="0.25"
     inkscape:showpageshadow="2"
     inkscape:pageopacity="0.0"
     inkscape:pagecheckerboard="0"
     inkscape:deskcolor="#d1d1d1"
     inkscape:document-units="mm"
     showgrid="false"
     inkscape:zoom="0.69041105"
     inkscape:cx="111.52776"
     inkscape:cy="383.82931"
     inkscape:window-width="1768"
     inkscape:window-height="929"
     inkscape:window-x="-8"
     inkscape:window-y="-8"
     inkscape:window-maximized="1"
     inkscape:current-layer="layer1"
     showguides="true"
     inkscape:lockguides="false" /><defs
     id="defs2" /><g
     inkscape:label="Capa 1"
     inkscape:groupmode="layer"
     id="layer1"><path
       style="fill:#d4f3eb;stroke-width:0.332329;fill-opacity:1"
       d="m 68.064639,187.9328 c -0.178426,-0.0464 -0.724028,-0.17701 -1.212446,-0.28999 -0.488418,-0.11297 -1.145356,-0.61761 -1.459861,-1.12143 -0.525923,-0.84251 -0.562728,-1.94429 -0.458485,-13.72426 0.13374,-15.1125 0.36723,-14.14663 -3.348525,-13.85171 -2.981572,0.23663 -4.17615,-0.25967 -4.709876,-1.95676 -0.488511,-1.55333 -0.200165,-3.29156 0.68567,-4.13343 0.627011,-0.5959 1.407765,-0.64971 10.761649,-0.74183 7.217827,-0.071 10.348954,0.0152 11.011789,0.30329 2.081902,0.90495 2.373878,3.93945 0.53526,5.56299 -0.889457,0.78539 -1.259517,0.87162 -3.741054,0.87162 -4.418178,0 -4.00895,-1.40673 -4.00895,13.7808 0,13.07022 -3.21e-4,13.07636 -0.729931,13.96387 -0.66206,0.80535 -2.511642,1.54892 -3.32524,1.33684 z m 55.418571,-0.0375 c -0.38774,-0.081 -1.08117,-0.54189 -1.54096,-1.02439 l -0.83599,-0.87728 v -16.13999 -16.13993 l 0.77479,-0.81307 c 1.46266,-1.5349 4.50621,-1.4257 5.91757,0.21232 0.53008,0.61522 0.60989,1.31415 0.63012,5.51933 0.0127,2.64819 0.0493,5.38939 0.0811,6.09155 l 0.058,1.27665 h 4.70401 4.70399 v -5.93156 c 0,-5.85692 0.01,-5.94455 0.82489,-6.96035 1.08735,-1.35606 3.13068,-1.73043 4.82896,-0.88472 0.6497,0.32352 1.32722,0.87441 1.5056,1.22418 0.20341,0.39886 0.31845,6.49952 0.30856,16.36393 -0.017,16.86788 -0.004,16.72346 -1.66298,17.65556 -1.04317,0.58587 -3.29435,0.50168 -4.25539,-0.15914 -1.29659,-0.89151 -1.54964,-2.20925 -1.54964,-8.06957 0,-4.97484 -0.0477,-5.41106 -0.62749,-5.73668 -0.72488,-0.40709 -7.77387,-0.4724 -8.36616,-0.0774 -0.27436,0.18291 -0.45913,2.09731 -0.59915,6.2078 -0.20774,6.09828 -0.41794,7.06929 -1.68057,7.7635 -0.78167,0.42976 -2.37111,0.67631 -3.21919,0.49932 z M 6.2388944,186.79358 5.2906074,185.79844 V 170.1174 154.43635 l 0.937385,-1.10095 0.937382,-1.10093 4.3801906,-0.13432 c 7.956714,-0.24401 11.379486,0.70504 14.224621,3.94414 2.162405,2.46182 3.036632,4.83652 3.038676,8.25407 0.0013,2.04532 -0.181561,3.39251 -0.623435,4.59494 -0.875827,2.3833 -3.317348,4.97712 -5.790964,6.15221 -1.773645,0.84257 -2.500911,0.97664 -5.992689,1.10469 l -3.974068,0.14574 v 4.75125 4.75125 l -0.948286,0.99514 c -0.802778,0.84243 -1.204839,0.99512 -2.6202626,0.99512 -1.415423,0 -1.817485,-0.15269 -2.620263,-0.99512 z M 19.764372,168.6329 c 1.936659,-1.07274 2.661059,-4.38284 1.469432,-6.71451 -0.961957,-1.88229 -2.850895,-2.72669 -6.099604,-2.72669 h -2.706494 v 4.87964 c 0,2.6838 0.109494,4.99708 0.243312,5.14063 0.440656,0.47271 6.016276,0.0175 7.093354,-0.57907 z M 100.506,187.08716 c -3.623833,-1.33836 -6.920713,-4.7339 -7.445243,-7.66806 -0.50928,-2.84876 2.04317,-5.16689 4.50204,-4.08875 0.59279,0.25991 1.49752,1.05404 2.01051,1.76471 2.308283,3.19783 4.201363,4.23868 6.498583,3.57305 2.87915,-0.83424 3.6685,-3.5923 1.61093,-5.6287 -0.60265,-0.59646 -1.80705,-1.36479 -2.67642,-1.70741 -3.35256,-1.32122 -7.548163,-3.65328 -8.718453,-4.846 -1.76785,-1.80173 -2.57935,-3.88713 -2.55693,-6.57079 0.0328,-3.93514 2.23384,-7.33448 5.91596,-9.13698 1.592353,-0.77951 2.257043,-0.89754 5.076413,-0.90146 2.83256,-0.004 3.47542,0.10923 5.06734,0.8926 3.18813,1.56871 5.80051,4.7542 5.80051,7.07303 0,1.88928 -2.45707,3.90357 -4.30856,3.53215 -0.86538,-0.1736 -1.266,-0.54355 -3.39605,-3.13615 -0.85654,-1.04254 -1.16817,-1.1821 -2.93972,-1.31657 -1.86289,-0.14141 -2.04073,-0.0884 -2.96796,0.88464 -0.54248,0.56928 -0.98632,1.34147 -0.98632,1.71601 0,1.25912 1.54628,2.67947 4.14144,3.80415 8.53967,3.70089 11.10599,6.38874 11.10599,11.6319 0,2.90894 -0.82703,4.93936 -2.89807,7.11501 -2.2836,2.39893 -4.62449,3.41528 -8.29419,3.60109 -2.04396,0.10345 -3.00883,-0.0213 -4.5418,-0.58747 z m 58.62103,0.15172 c -0.76752,-0.297 -2.27011,-1.38976 -3.33908,-2.42834 -7.22969,-7.02405 -7.18151,-23.28474 0.0894,-30.18961 2.48975,-2.3644 4.49012,-3.06163 8.16115,-2.84459 5.67084,0.33528 9.41943,3.99007 11.27687,10.99469 0.85287,3.21622 1.01058,9.31074 0.32584,12.59156 -1.0637,5.09653 -4.11637,9.63338 -7.65721,11.38009 -2.12394,1.04773 -6.7605,1.30749 -8.85702,0.4962 z m 6.1674,-6.99158 c 0.94999,-0.51037 2.11838,-2.42256 2.65837,-4.35074 0.70301,-2.51021 0.71347,-10.10256 0.0173,-12.56259 -0.89524,-3.16352 -3.19717,-5.12896 -5.48058,-4.67944 -1.39577,0.27479 -3.1479,2.31631 -3.74583,4.36453 -1.09418,3.74813 -0.96543,11.07802 0.24505,13.94966 0.73414,1.74165 2.38654,3.56921 3.40189,3.76253 0.83555,0.15909 2.0987,-0.0514 2.90379,-0.48395 z m 16.89935,6.938 c -0.39229,-0.32352 -0.87096,-1.03107 -1.06368,-1.57235 -0.47435,-1.33224 -0.4248,-28.8152 0.0555,-30.80104 0.57705,-2.38576 1.24793,-2.58579 8.69632,-2.59306 l 6.32607,-0.006 1.91712,1.01936 c 4.07892,2.16881 6.39076,5.76719 6.62433,10.31087 0.22587,4.39335 -1.19752,7.83394 -4.19672,10.14433 -2.36272,1.82005 -4.85543,2.52644 -8.91542,2.52644 h -3.37745 v 4.2047 c 0,4.78626 -0.32747,6.15706 -1.64113,6.86994 -1.25317,0.68005 -3.53995,0.62681 -4.42497,-0.10307 z m 13.44103,-18.57125 c 2.79622,-1.55276 2.72933,-6.6739 -0.11269,-8.62805 -0.64603,-0.44421 -1.72517,-0.64011 -4.07066,-0.73897 l -3.19158,-0.13452 v 5.18579 5.18578 l 3.16303,-0.1438 c 2.13606,-0.0971 3.50359,-0.33291 4.2119,-0.72623 z M 34.310134,186.54742 c -0.437549,-0.49545 -0.807348,-1.22314 -0.821781,-1.61709 -0.01443,-0.39396 -0.02718,-7.34857 -0.02832,-15.45471 -0.0019,-13.17917 0.05506,-14.82995 0.538088,-15.60355 1.028074,-1.64655 2.079676,-1.82958 10.511225,-1.82958 H 52.2808 l 0.99813,0.88136 c 0.805201,0.711 0.998133,1.142 0.998133,2.22976 0,1.54463 -0.696512,3.17295 -1.494713,3.49438 -0.300008,0.12083 -2.943841,0.22509 -5.875188,0.23173 -2.931346,0.006 -5.538013,0.096 -5.792593,0.19846 -0.357647,0.14402 -0.462876,0.95059 -0.462876,3.54788 0,3.94682 -0.215107,3.76415 4.273733,3.62925 2.719586,-0.0817 2.847313,-0.0511 3.811859,0.91534 1.306122,1.30862 1.399654,3.4077 0.216275,4.85369 -0.751939,0.91882 -0.921831,0.96168 -4.460688,1.12542 l -3.678973,0.17021 v 3.40441 3.40439 l 6.076337,0.17022 6.076339,0.17022 0.898555,0.94395 c 0.71888,0.7552 0.898553,1.25431 0.898553,2.4961 0,1.32297 -0.156454,1.69888 -1.059463,2.54558 l -1.05946,0.99338 H 43.875217 35.105678 Z M 17.166076,145.93527 c 0.344846,-0.33487 5.799114,-2.82169 10.346864,-4.71755 3.941252,-1.64304 10.322309,-3.85428 14.274198,-4.94647 l 2.919722,-0.80693 0.162207,-25.50665 0.162208,-25.506674 4.824195,-4.519436 c 2.653307,-2.485702 4.883476,-4.457237 4.955924,-4.381206 0.07245,0.07605 0.129967,12.666547 0.127813,27.978926 l -0.004,27.8407 5.104813,-0.21404 c 2.807657,-0.11774 7.367608,-0.24645 10.133234,-0.28605 l 5.028411,-0.072 0.871382,1.67918 c 0.479259,0.92353 0.833071,1.71935 0.786251,1.76849 -0.04682,0.0491 -1.606832,0.24925 -3.466689,0.44471 -13.759867,1.44604 -29.903542,4.64227 -50.639951,10.02605 -6.085084,1.57988 -5.92159,1.5442 -5.586656,1.21895 z M 182.42043,144.3418 c -3.65775,-1.00051 -9.05924,-2.36942 -12.0033,-3.04204 -2.94405,-0.67261 -6.6667,-1.52228 -8.27253,-1.88816 -8.04639,-1.83326 -22.20681,-4.1094 -30.57599,-4.91475 -1.29361,-0.12455 -2.352,-0.28328 -2.352,-0.35289 0,-0.0696 0.32847,-0.84123 0.72993,-1.71471 l 0.72992,-1.58817 10.30015,0.17884 10.30013,0.17882 v -27.87759 c 0,-15.332689 0.0726,-27.877605 0.1614,-27.877605 0.0888,0 2.35154,2.011398 5.0284,4.469769 l 4.86702,4.46977 0.005,25.063376 c 0.003,13.78486 0.12016,25.25385 0.2611,25.48662 0.14086,0.23279 2.07295,0.9479 4.29351,1.58915 2.22056,0.64122 6.08119,1.92743 8.57917,2.85822 6.7083,2.49963 16.78301,7.11396 14.9068,6.82751 -0.16949,-0.0259 -3.3009,-0.86565 -6.95867,-1.86616 z m -72.52872,-10.12591 c -0.9044,-0.23752 -2.7415,-1.14944 -4.08241,-2.02647 -1.34091,-0.87705 -2.63458,-1.59463 -2.8748,-1.59463 -0.24023,0 -1.32287,0.60094 -2.40587,1.33545 -2.808063,1.9044 -4.886783,2.53221 -7.741053,2.33791 -2.644982,-0.18005 -3.915201,-0.75482 -5.618683,-2.54245 -1.801138,-1.89013 -2.530297,-3.89316 -2.520902,-6.92504 0.0062,-2.00103 0.186084,-2.96732 0.823887,-4.42573 0.949601,-2.17134 3.132704,-4.64832 5.370184,-6.09307 1.163314,-0.75115 1.684874,-1.35383 1.998784,-2.30959 0.70417,-2.14401 2.63712,-5.28116 4.30392,-6.98525 1.15387,-1.17967 2.06099,-1.75606 3.412743,-2.16844 4.83161,-1.47396 8.76858,1.03899 11.90944,7.60175 1.2526,2.61727 1.6931,3.21002 3.07919,4.14342 1.96956,1.3263 3.9595,3.54126 4.96703,5.52868 0.62373,1.23035 0.75104,1.99876 0.75297,4.54466 0.003,2.74956 -0.0947,3.24751 -0.94212,4.85274 -1.99079,3.77048 -6.42389,5.77877 -10.43231,4.72606 z M 81.667263,111.40766 c -2.384745,-1.13496 -5.508095,-6.24261 -6.317452,-10.33099 -0.4888,-2.469108 -0.248786,-7.432487 0.425187,-8.79257 0.874398,-1.764568 2.02507,-2.62599 3.738532,-2.798756 3.020167,-0.304536 5.585151,1.924585 7.876892,6.845478 3.788819,8.135458 2.422705,15.054448 -3.047402,15.434238 -0.97933,0.0679 -2.095079,-0.0811 -2.675757,-0.3574 z m 37.127567,-0.36738 c -1.7884,-1.27528 -2.39604,-2.89292 -2.37361,-6.31893 0.0248,-3.77486 1.01502,-7.024548 3.19298,-10.477809 1.96584,-3.116944 3.61145,-4.436405 5.87374,-4.709584 3.17675,-0.383618 5.10606,2.110126 5.29694,6.846625 0.39188,9.724228 -6.71901,18.418408 -11.99005,14.659698 z M 93.326097,97.939732 c -2.277486,-1.08528 -4.335177,-4.802227 -5.192051,-9.378728 -0.727238,-3.884128 -0.288624,-8.009936 1.102575,-10.371304 1.234199,-2.094891 3.316666,-3.059364 5.275726,-2.44342 1.92471,0.605135 3.648,2.420903 4.96821,5.234778 1.492523,3.181137 1.914213,5.159544 1.906863,8.946333 -0.006,3.412744 -0.5034,5.129899 -1.952973,6.750461 -1.72498,1.92847 -3.80693,2.35857 -6.10835,1.26188 z m 14.551593,-0.0485 c -0.93093,-0.49633 -1.67817,-1.25866 -2.27089,-2.316729 -0.83198,-1.48515 -0.88259,-1.814868 -0.86925,-5.66226 0.0111,-3.337253 0.14851,-4.49046 0.7479,-6.298133 1.00486,-3.030465 3.10639,-6.23286 4.71145,-7.179525 1.4247,-0.840281 3.51215,-1.002842 4.65262,-0.362322 4.01854,2.2569 4.41722,13.016659 0.70049,18.905108 -1.99946,3.167731 -5.03431,4.320341 -7.67232,2.913861 z M 34.001212,78.963137 c -2.46929,-1.366091 -3.730756,-3.534595 -3.730756,-6.413333 0,-1.220964 0.22934,-2.371301 0.641994,-3.220125 0.680938,-1.400678 0.757723,-1.475101 10.063654,-9.753044 6.517395,-5.79744 15.883465,-14.229466 24.161216,-21.751684 2.884676,-2.621384 7.992584,-7.217315 11.350908,-10.213193 3.358322,-2.995866 6.267547,-5.601064 6.464947,-5.789334 0.197398,-0.188258 2.541589,-2.333035 5.209315,-4.766161 2.667725,-2.433114 6.206607,-5.69462 7.864177,-7.2477841 3.33358,-3.123606 5.083473,-4.1363971 7.166163,-4.1476072 2.66298,-0.014334 2.95509,0.1894647 11.93592,8.3275733 2.68968,2.437295 8.58566,7.725201 13.10218,11.750891 12.00622,10.701523 33.56324,30.033346 33.75146,30.267538 0.26564,0.330529 6.75723,6.172141 9.80525,8.823505 3.48691,3.033142 4.51528,4.720201 4.51528,7.407387 0,4.015319 -2.62306,6.928219 -6.50411,7.222823 -2.36522,0.179533 -3.51687,-0.412736 -7.0054,-3.602778 C 144.88629,59.482809 104.15313,23.091408 103.3857,22.78238 c -0.23856,-0.09612 -1.00585,0.338455 -1.70508,0.965592 -0.69922,0.627152 -4.096293,3.661091 -7.549043,6.742099 -3.45274,3.081007 -6.3507,5.689575 -6.439914,5.796822 -0.08921,0.107182 -2.935943,2.665891 -6.326064,5.68587 -6.988191,6.22521 -8.226124,7.336341 -21.87786,19.637066 -5.431005,4.893532 -11.752422,10.610966 -14.047591,12.705407 -2.295171,2.094429 -4.795555,4.124303 -5.556412,4.510815 -1.672599,0.849699 -4.476334,0.915026 -5.882524,0.137086 z M 101.15483,69.094971 C 94.492947,68.052628 89.874525,63.375416 88.993404,56.778728 c -0.91226,-6.829799 2.124147,-12.904555 7.964173,-15.933425 1.78379,-0.925151 2.84469,-1.234693 4.749813,-1.385905 4.85345,-0.385188 8.1095,0.83889 11.49981,4.323251 7.57756,7.787743 4.52923,21.678832 -5.40601,24.634874 -1.97549,0.587778 -5.15088,0.911435 -6.64636,0.677448 z m -0.1622,-7.439245 V 56.71936 h -4.840053 -4.84007 l 0.3346,1.27664 c 0.89104,3.399864 3.03696,6.027373 6.20862,7.601948 3.259933,1.618401 3.136903,1.773011 3.136903,-3.942222 z m 6.94703,4.237198 c 3.12561,-1.227204 6.18077,-4.834948 6.83153,-8.067142 l 0.22278,-1.106422 H 110.10199 105.21 v 4.936366 c 0,5.598838 -0.14905,5.367476 2.72966,4.237198 z m -6.94703,-18.705887 c 0,-5.6762 0.10937,-5.457577 -2.294223,-4.585181 -3.23921,1.175673 -5.93011,4.145773 -6.91763,7.635385 -0.28631,1.011746 -0.52056,1.888337 -0.52056,1.947963 0,0.0597 2.18979,0.108469 4.86621,0.108469 h 4.866203 z m 13.77338,4.000175 c -0.69503,-3.373487 -3.85372,-7.24043 -6.88716,-8.431453 C 105.06444,41.650727 105.21,41.40902 105.21,47.187037 v 5.106597 h 4.89199 4.89198 z M 44.616561,31.059925 c 0.0878,-15.719608 0.108745,-16.191312 0.759173,-17.105205 0.367878,-0.51688 1.072018,-1.255666 1.564753,-1.641715 0.870055,-0.681682 1.271633,-0.701908 13.929739,-0.701908 h 13.033858 l 1.254859,0.818599 c 1.272593,0.830167 2.45472,2.903776 2.468774,4.330561 0.0049,0.504606 -0.758939,1.345349 -2.525197,2.779211 -1.392775,1.130676 -2.724525,2.298795 -2.959447,2.595843 -0.372851,0.471447 -1.679307,0.540067 -10.282013,0.540067 h -9.854893 l -0.01202,8.936555 -0.01189,8.936541 -3.727999,3.338424 -3.728002,3.338419 z"
       id="path179" /></g></svg>
